<svg width="1450" height="1104" viewBox="0 0 1450 1104" fill="none" xmlns="http://www.w3.org/2000/svg">
<path d="M1217.86 1103.01L288.783 1103.33C242.108 1103.34 200.298 1079.22 176.947 1038.81C165.27 1018.6 159.43 996.434 159.422 974.261C159.415 952.091 165.242 929.916 176.902 909.701L641.147 64.5924C664.473 24.1611 706.266 0.0161471 752.941 8.09535e-06C799.616 -0.0161309 841.425 24.0999 864.779 64.5151L1329.67 909.408C1341.31 929.563 1347.14 951.705 1347.14 973.864C1347.14 996.023 1341.32 1018.2 1329.65 1038.41C1306.33 1078.84 1264.54 1102.99 1217.86 1103.01ZM171.101 974.246C171.099 994.427 273.62 950.939 284.241 969.322C305.486 1006.09 246.315 1091.69 288.779 1091.67C288.779 1091.67 1298.34 1069.37 1319.56 1032.59C1330.17 1014.2 1335.47 994.025 1335.46 973.854C1335.46 953.684 1330.14 933.515 1319.52 915.132L854.628 70.2397C833.443 33.5791 795.409 11.6381 752.945 11.6527C710.5 11.6674 171.103 954.061 171.101 974.246Z" fill="#3F3D56"/>
<path d="M1024.04 916.628C1258.95 916.628 1449.38 726.204 1449.38 491.303C1449.38 256.403 1258.95 65.9785 1024.04 65.9785C789.137 65.9785 598.708 256.403 598.708 491.303C598.708 726.204 789.137 916.628 1024.04 916.628Z" fill="#0D6EFD"/>
<path d="M1024.12 752.033C1045.69 752.033 1063.17 734.549 1063.17 712.981C1063.17 691.413 1045.69 673.929 1024.12 673.929C1002.55 673.929 985.068 691.413 985.068 712.981C985.068 734.549 1002.55 752.033 1024.12 752.033Z" fill="white"/>
<path d="M1023.95 230.574C1020.37 254.41 1026.79 259.398 1026.83 362.163C1026.87 464.927 1048.19 602.708 1024.08 602.717C999.977 602.725 991.16 318.374 907.454 293.207C809.039 263.618 1035.57 153.409 1023.95 230.574Z" fill="white"/>
<path d="M453.182 708.457L414.754 789.649C461.211 756.337 533.773 727.621 591.517 712.241C537.715 686.254 471.88 644.353 432.549 602.869L454.651 688.659C195.523 635.881 9.43896 437.096 9.36019 209.386L0 206.166C0.0822705 444.015 183.592 654.57 453.182 708.457Z" fill="#3F3D56"/>
</svg>
