<svg width="696" height="607" viewBox="0 0 696 607" fill="none" xmlns="http://www.w3.org/2000/svg">
<path d="M406.56 60.1978L236.228 355.018H576.893L406.56 60.1978Z" fill="#0D6EFD"/>
<path d="M396.837 231.919C396.837 264.395 409.742 295.54 432.714 318.504C455.686 341.468 486.843 354.369 519.331 354.369C551.818 354.369 582.975 341.468 605.947 318.504C628.919 295.54 641.824 264.395 641.824 231.919C641.824 199.443 628.919 168.297 605.947 145.334C582.975 122.37 551.818 109.469 519.331 109.469C486.843 109.469 455.686 122.37 432.714 145.334C409.742 168.297 396.837 199.443 396.837 231.919Z" fill="#0D6EFD"/>
<path d="M593.903 4.86133L648.71 80.2242L264.149 359.517L209.342 284.154L593.903 4.86133Z" fill="#0D6EFD"/>
<path fill-rule="evenodd" clip-rule="evenodd" d="M21.1524 0.00212772C18.3889 -0.0373454 15.6452 0.472762 13.0807 1.50275C10.5162 2.53274 8.18198 4.0616 6.21383 6.00141C4.24568 7.94123 2.68282 10.2533 1.61608 12.8023C0.549335 15.3513 0 18.0874 0 20.8505C0 23.6137 0.549335 26.3497 1.61608 28.8987C2.68282 31.4477 4.24568 33.7598 6.21383 35.6996C8.18198 37.6395 10.5162 39.1683 13.0807 40.1983C15.6452 41.2283 18.3889 41.7384 21.1524 41.6989H91.5833C106.531 41.6989 119.651 51.2397 124.328 65.6416L217.892 353.819L176.73 382.648C162.272 392.756 153.001 408.52 153 428.148V430.963C153 461.407 178.159 486.505 208.606 486.505H674.091C676.855 486.545 679.599 486.035 682.163 485.005C684.728 483.975 687.062 482.443 689.03 480.503C690.998 478.563 692.561 476.254 693.628 473.705C694.695 471.156 695.244 468.42 695.244 465.657C695.244 462.894 694.695 460.158 693.628 457.609C692.561 455.06 690.998 452.748 689.03 450.808C687.062 448.868 684.728 447.339 682.163 446.309C679.599 445.279 676.855 444.769 674.091 444.809H208.606C200.681 444.809 194.705 438.862 194.705 430.963V428.148C194.705 425.122 198.98 417.944 200.624 416.8L250.094 382.215H581.668C602.657 382.215 621.388 368.499 627.825 348.554L692.826 147.025C702.766 116.219 679.082 83.3957 646.668 83.3957H243.36C240.597 83.3563 237.853 83.8664 235.288 84.8964C232.724 85.9264 230.39 87.4552 228.421 89.395C226.453 91.3348 224.89 93.6469 223.824 96.1959C222.757 98.7449 222.208 101.478 222.208 104.241C222.208 107.004 222.757 109.74 223.824 112.289C224.89 114.838 226.453 117.15 228.421 119.09C230.39 121.03 232.724 122.559 235.288 123.589C237.853 124.619 240.597 125.129 243.36 125.089H646.668C651.822 125.089 654.779 129.157 653.131 134.263L640.369 173.731H299.184C297.341 173.705 295.512 174.045 293.803 174.732C292.093 175.418 290.537 176.44 289.225 177.733C287.913 179.026 286.871 180.564 286.16 182.264C285.448 183.963 285.082 185.789 285.082 187.631C285.082 189.473 285.448 191.296 286.16 192.996C286.871 194.695 287.913 196.236 289.225 197.53C290.537 198.823 292.093 199.841 293.803 200.528C295.512 201.214 297.341 201.554 299.184 201.528H631.409L613.489 257.122H354.79C352.948 257.095 351.119 257.435 349.409 258.122C347.699 258.809 346.143 259.83 344.831 261.123C343.519 262.417 342.477 263.958 341.766 265.657C341.055 267.357 340.689 269.18 340.689 271.022C340.689 272.864 341.055 274.687 341.766 276.386C342.477 278.085 343.519 279.627 344.831 280.92C346.143 282.213 347.699 283.231 349.409 283.918C351.119 284.605 352.948 284.948 354.79 284.922H604.529L588.13 335.735C587.168 338.708 584.653 340.515 581.668 340.515H257.479L164.024 52.774C153.847 21.4403 124.512 0.00212772 91.5833 0.00212772H21.1524Z" fill="black"/>
<path d="M295.632 565.218C295.632 576.277 291.238 586.882 283.417 594.702C275.595 602.521 264.988 606.912 253.927 606.912C242.866 606.912 232.258 602.521 224.437 594.702C216.616 586.882 212.222 576.277 212.222 565.218C212.222 554.16 216.616 543.554 224.437 535.735C232.258 527.915 242.866 523.521 253.927 523.521C264.988 523.521 275.595 527.915 283.417 535.735C291.238 543.554 295.632 554.16 295.632 565.218Z" fill="black"/>
<path d="M609.124 565.218C609.124 576.277 604.73 586.882 596.909 594.702C589.088 602.521 578.48 606.912 567.42 606.912C556.359 606.912 545.751 602.521 537.93 594.702C530.109 586.882 525.715 576.277 525.715 565.218C525.715 554.16 530.109 543.554 537.93 535.735C545.751 527.915 556.359 523.521 567.42 523.521C578.48 523.521 589.088 527.915 596.909 535.735C604.73 543.554 609.124 554.16 609.124 565.218Z" fill="black"/>
</svg>
