<svg width="2880" height="357" viewBox="0 0 2880 357" fill="none" xmlns="http://www.w3.org/2000/svg">
<path d="M102.708 287.84C82.7669 287.84 63.4867 285.138 44.8671 279.734C26.2476 274.33 11.2919 267.305 0 258.659L19.8208 214.709C30.6322 222.634 43.4857 228.999 58.3813 233.802C73.277 238.605 88.1726 241.007 103.068 241.007C119.646 241.007 131.899 238.545 139.827 233.622C147.755 228.699 151.719 222.154 151.719 213.988C151.719 207.984 149.377 203.001 144.692 199.038C140.007 195.075 134.001 191.893 126.673 189.491C119.345 187.09 109.435 184.448 96.9418 181.566C77.7216 177.003 61.9851 172.44 49.7322 167.876C37.4794 163.313 26.9683 155.988 18.1991 145.901C9.4299 135.814 5.0453 122.365 5.0453 105.553C5.0453 90.903 9.00946 77.6338 16.9378 65.7456C24.8661 53.8574 36.8187 44.4308 52.7954 37.466C68.7722 30.5011 88.2927 27.0187 111.357 27.0187C127.454 27.0187 143.19 28.94 158.567 32.7827C173.943 36.6254 187.397 42.1492 198.929 49.3542L180.91 93.6649C157.606 80.4557 134.301 73.8512 110.997 73.8512C94.6594 73.8512 82.5867 76.493 74.7785 81.7767C66.9703 87.0604 63.0662 94.0252 63.0662 102.671C63.0662 111.317 67.571 117.742 76.5804 121.945C85.5899 126.147 99.3443 130.29 117.844 134.373C137.064 138.936 152.8 143.499 165.053 148.063C177.306 152.626 187.817 159.831 196.586 169.678C205.356 179.524 209.74 192.854 209.74 209.665C209.74 224.075 205.716 237.224 197.668 249.113C189.619 261.001 177.546 270.427 161.45 277.392C145.353 284.357 125.772 287.84 102.708 287.84ZM363.622 86.8202C387.647 86.8202 407.047 94.0251 421.823 108.435C436.599 122.845 443.986 144.22 443.986 172.56V283.517H387.767V181.206C387.767 165.835 384.404 154.367 377.677 146.802C370.95 139.237 361.219 135.454 348.486 135.454C334.311 135.454 323.019 139.837 314.61 148.603C306.202 157.369 301.997 170.398 301.997 187.69V283.517H245.778V16.2112H301.997V109.876C309.445 102.431 318.454 96.727 329.026 92.7643C339.597 88.8015 351.129 86.8202 363.622 86.8202ZM589.219 286.399C568.797 286.399 550.478 282.136 534.261 273.61C518.044 265.084 505.371 253.256 496.241 238.125C487.112 222.995 482.547 205.823 482.547 186.609C482.547 167.396 487.112 150.224 496.241 135.094C505.371 119.963 518.044 108.135 534.261 99.6091C550.478 91.0832 568.797 86.8202 589.219 86.8202C609.64 86.8202 627.899 91.0832 643.996 99.6091C660.093 108.135 672.707 119.963 681.836 135.094C690.966 150.224 695.53 167.396 695.53 186.609C695.53 205.823 690.966 222.995 681.836 238.125C672.707 253.256 660.093 265.084 643.996 273.61C627.899 282.136 609.64 286.399 589.219 286.399ZM589.219 240.287C603.634 240.287 615.466 235.423 624.716 225.696C633.966 215.97 638.591 202.941 638.591 186.609C638.591 170.278 633.966 157.249 624.716 147.522C615.466 137.795 603.634 132.932 589.219 132.932C574.804 132.932 562.911 137.795 553.541 147.522C544.172 157.249 539.487 170.278 539.487 186.609C539.487 202.941 544.172 215.97 553.541 225.696C562.911 235.423 574.804 240.287 589.219 240.287ZM847.61 86.8202C865.629 86.8202 882.026 90.963 896.802 99.2487C911.577 107.535 923.17 119.183 931.578 134.193C939.987 149.203 944.192 166.676 944.192 186.609C944.192 206.543 939.987 224.015 931.578 239.026C923.17 254.036 911.577 265.684 896.802 273.97C882.026 282.256 865.629 286.399 847.61 286.399C822.864 286.399 803.404 278.593 789.229 262.982V353.405H733.01V89.7022H786.706V112.038C800.641 95.226 820.942 86.8202 847.61 86.8202ZM837.88 240.287C852.295 240.287 864.128 235.423 873.377 225.696C882.627 215.97 887.252 202.941 887.252 186.609C887.252 170.278 882.627 157.249 873.377 147.522C864.128 137.795 852.295 132.932 837.88 132.932C823.465 132.932 811.632 137.795 802.383 147.522C793.133 157.249 788.508 170.278 788.508 186.609C788.508 202.941 793.133 215.97 802.383 225.696C811.632 235.423 823.465 240.287 837.88 240.287ZM1096.27 86.8202C1114.29 86.8202 1130.69 90.963 1145.46 99.2487C1160.24 107.535 1171.83 119.183 1180.24 134.193C1188.65 149.203 1192.85 166.676 1192.85 186.609C1192.85 206.543 1188.65 224.015 1180.24 239.026C1171.83 254.036 1160.24 265.684 1145.46 273.97C1130.69 282.256 1114.29 286.399 1096.27 286.399C1071.53 286.399 1052.06 278.593 1037.89 262.982V353.405H981.671V89.7022H1035.37V112.038C1049.3 95.226 1069.6 86.8202 1096.27 86.8202ZM1086.54 240.287C1100.96 240.287 1112.79 235.423 1122.04 225.696C1131.29 215.97 1135.91 202.941 1135.91 186.609C1135.91 170.278 1131.29 157.249 1122.04 147.522C1112.79 137.795 1100.96 132.932 1086.54 132.932C1072.13 132.932 1060.29 137.795 1051.04 147.522C1041.79 157.249 1037.17 170.278 1037.17 186.609C1037.17 202.941 1041.79 215.97 1051.04 225.696C1060.29 235.423 1072.13 240.287 1086.54 240.287ZM1230.33 283.517V89.7022H1286.55V283.517H1230.33ZM1258.44 62.6834C1248.11 62.6834 1239.7 59.6814 1233.22 53.6772C1226.73 47.673 1223.49 40.2279 1223.49 31.3417C1223.49 22.4556 1226.73 15.0103 1233.22 9.00616C1239.7 3.00202 1248.11 0 1258.44 0C1268.77 0 1277.18 2.88199 1283.67 8.64597C1290.16 14.41 1293.4 21.6149 1293.4 30.2609C1293.4 39.6274 1290.16 47.3728 1283.67 53.497C1277.18 59.6213 1268.77 62.6834 1258.44 62.6834ZM1456.65 86.8202C1480.68 86.8202 1500.08 94.0251 1514.85 108.435C1529.63 122.845 1537.01 144.22 1537.01 172.56V283.517H1480.8V181.206C1480.8 165.835 1477.43 154.367 1470.7 146.802C1463.98 139.237 1454.25 135.454 1441.51 135.454C1427.34 135.454 1416.05 139.837 1407.64 148.603C1399.23 157.369 1395.03 170.398 1395.03 187.69V283.517H1338.81V89.7022H1392.5V112.398C1399.95 104.232 1409.2 97.9279 1420.25 93.4848C1431.3 89.0417 1443.44 86.8202 1456.65 86.8202ZM1736.66 89.7022H1790V251.094C1790 286.639 1780.75 313.057 1762.25 330.349C1743.75 347.641 1716.72 356.287 1681.17 356.287C1662.43 356.287 1644.65 354.005 1627.83 349.442C1611.01 344.879 1597.08 338.275 1586.03 329.629L1608.37 289.281C1616.54 296.005 1626.87 301.349 1639.36 305.312C1651.85 309.274 1664.35 311.256 1676.84 311.256C1696.3 311.256 1710.66 306.873 1719.91 298.107C1729.16 289.341 1733.78 276.071 1733.78 258.299V250.013C1719.13 266.105 1698.7 274.15 1672.52 274.15C1654.74 274.15 1638.46 270.247 1623.69 262.442C1608.91 254.637 1597.2 243.649 1588.55 229.479C1579.9 215.309 1575.57 198.978 1575.57 180.485C1575.57 161.992 1579.9 145.661 1588.55 131.491C1597.2 117.321 1608.91 106.334 1623.69 98.5283C1638.46 90.7229 1654.74 86.8202 1672.52 86.8202C1700.63 86.8202 1722.01 96.0666 1736.66 114.559V89.7022ZM1683.69 228.038C1698.58 228.038 1710.78 223.655 1720.27 214.889C1729.76 206.123 1734.5 194.655 1734.5 180.485C1734.5 166.315 1729.76 154.847 1720.27 146.081C1710.78 137.315 1698.58 132.932 1683.69 132.932C1668.79 132.932 1656.54 137.315 1646.93 146.081C1637.32 154.847 1632.51 166.315 1632.51 180.485C1632.51 194.655 1637.32 206.123 1646.93 214.889C1656.54 223.655 1668.79 228.038 1683.69 228.038Z" fill="#0D6EFD"/>
<path d="M2024.97 297.566C2008.87 297.566 1993.13 295.585 1977.76 291.622C1962.38 287.659 1950.13 282.676 1941 276.672L1959.74 236.324C1968.39 241.848 1978.84 246.351 1991.09 249.833C2003.35 253.315 2015.36 255.057 2027.13 255.057C2050.92 255.057 2062.81 249.173 2062.81 237.404C2062.81 231.881 2059.56 227.918 2053.08 225.516C2046.59 223.115 2036.62 221.073 2023.17 219.392C2007.31 216.99 1994.22 214.228 1983.89 211.106C1973.55 207.984 1964.6 202.46 1957.04 194.535C1949.47 186.609 1945.68 175.321 1945.68 160.671C1945.68 148.423 1949.23 137.555 1956.32 128.069C1963.4 118.582 1973.73 111.197 1987.31 105.913C2000.88 100.63 2016.92 97.9877 2035.42 97.9877C2049.11 97.9877 2062.75 99.4887 2076.32 102.491C2089.9 105.493 2101.13 109.636 2110.02 114.919L2091.28 154.907C2074.22 145.301 2055.6 140.497 2035.42 140.497C2023.41 140.497 2014.4 142.178 2008.39 145.541C2002.38 148.903 1999.38 153.226 1999.38 158.51C1999.38 164.514 2002.62 168.717 2009.11 171.118C2015.6 173.52 2025.93 175.802 2040.1 177.963C2055.96 180.605 2068.93 183.427 2079.02 186.429C2089.12 189.431 2097.88 194.895 2105.33 202.82C2112.78 210.746 2116.5 221.794 2116.5 235.963C2116.5 247.972 2112.9 258.659 2105.69 268.026C2098.49 277.392 2087.97 284.657 2074.16 289.821C2060.35 294.984 2043.95 297.566 2024.97 297.566ZM2261.02 245.69L2276.15 285.318C2270.63 289.4 2263.84 292.463 2255.79 294.504C2247.74 296.545 2239.27 297.566 2230.38 297.566C2207.32 297.566 2189.48 291.682 2176.87 279.914C2164.25 268.146 2157.95 250.854 2157.95 228.038V148.423H2128.04V105.193H2157.95V58H2214.17V105.193H2262.46V148.423H2214.17V227.317C2214.17 235.483 2216.27 241.787 2220.47 246.231C2224.68 250.674 2230.62 252.895 2238.31 252.895C2247.2 252.895 2254.77 250.493 2261.02 245.69ZM2394 297.566C2373.57 297.566 2355.26 293.303 2339.04 284.777C2322.82 276.251 2310.15 264.423 2301.02 249.293C2291.89 234.162 2287.32 216.99 2287.32 197.777C2287.32 178.564 2291.89 161.392 2301.02 146.261C2310.15 131.131 2322.82 119.302 2339.04 110.777C2355.26 102.251 2373.57 97.9877 2394 97.9877C2414.42 97.9877 2432.68 102.251 2448.77 110.777C2464.87 119.302 2477.48 131.131 2486.61 146.261C2495.74 161.392 2500.31 178.564 2500.31 197.777C2500.31 216.99 2495.74 234.162 2486.61 249.293C2477.48 264.423 2464.87 276.251 2448.77 284.777C2432.68 293.303 2414.42 297.566 2394 297.566ZM2394 251.454C2408.41 251.454 2420.24 246.591 2429.49 236.864C2438.74 227.137 2443.37 214.108 2443.37 197.777C2443.37 181.446 2438.74 168.417 2429.49 158.69C2420.24 148.963 2408.41 144.1 2394 144.1C2379.58 144.1 2367.69 148.963 2358.32 158.69C2348.95 168.417 2344.26 181.446 2344.26 197.777C2344.26 214.108 2348.95 227.137 2358.32 236.864C2367.69 246.591 2379.58 251.454 2394 251.454ZM2591.48 126.447C2598.21 117.081 2607.28 109.996 2618.69 105.193C2630.1 100.389 2643.26 97.9877 2658.15 97.9877V149.864C2651.91 149.383 2647.7 149.143 2645.54 149.143C2629.44 149.143 2616.83 153.646 2607.7 162.653C2598.57 171.659 2594.01 185.168 2594.01 203.181V294.684H2537.79V100.87H2591.48V126.447ZM2879.79 198.497C2879.79 199.218 2879.43 204.261 2878.7 213.628H2732.03C2734.67 225.636 2740.92 235.123 2750.77 242.088C2760.62 249.052 2772.87 252.535 2787.53 252.535C2797.62 252.535 2806.57 251.034 2814.38 248.032C2822.19 245.03 2829.45 240.286 2836.18 233.802L2866.09 266.224C2847.83 287.119 2821.16 297.566 2786.09 297.566C2764.22 297.566 2744.88 293.303 2728.07 284.777C2711.25 276.251 2698.28 264.423 2689.15 249.293C2680.02 234.162 2675.45 216.99 2675.45 197.777C2675.45 178.804 2679.96 161.692 2688.97 146.441C2697.98 131.191 2710.35 119.302 2726.08 110.777C2741.82 102.251 2759.42 97.9877 2778.88 97.9877C2797.86 97.9877 2815.04 102.071 2830.41 110.236C2845.79 118.402 2857.86 130.11 2866.63 145.361C2875.4 160.611 2879.79 178.323 2879.79 198.497ZM2779.24 140.497C2766.51 140.497 2755.82 144.1 2747.17 151.305C2738.52 158.51 2733.23 168.357 2731.31 180.845H2826.81C2824.89 168.597 2819.6 158.81 2810.95 151.485C2802.3 144.16 2791.73 140.497 2779.24 140.497Z" fill="#0D6EFD"/>
</svg>
